<svg viewBox="0 0 427 91" version="1.1" xmlns="http://www.w3.org/2000/svg" xmlns:xlink="http://www.w3.org/1999/xlink" preserveAspectRatio="xMinYMin meet">
                    <title>ServerlessDays Virtual</title>
                    <g stroke="none" stroke-width="1" fill="none" fill-rule="evenodd">
                        <g fill-rule="nonzero">
                            <g transform="translate(0.813036, 0.763293)">
                                <g transform="translate(0.000000, 0.907066)" fill="#0BB9A7">
                                    <path d="M30.3019683,32.745089 C31.8629788,32.745089 32.9648685,32.6543824 33.7912859,32.3822625 C34.6177032,32.1101427 34.9849998,31.7473162 34.9849998,31.0216633 C34.9849998,30.5681302 34.8931756,30.2053037 34.6177032,29.9331839 C34.3422307,29.661064 33.9749341,29.3889441 33.5158134,29.1168243 C33.0566927,28.9354111 32.5057478,28.6632912 31.9548029,28.481878 C31.4038581,28.3004647 30.761089,28.1190515 30.11832,27.8469316 C29.2000785,27.5748118 28.2818371,27.3026919 27.2717715,26.9398655 C26.35353,26.577039 25.4352885,26.1235059 24.7006954,25.5792662 C23.8742781,25.0350265 23.231509,24.4000802 22.7723883,23.493014 C22.2214434,22.6766544 22.0377951,21.6788816 22.0377951,20.408989 C22.0377951,19.4112162 22.2214434,18.4134434 22.58874,17.5970838 C22.9560366,16.6900177 23.5988056,15.8736581 24.4252229,15.2387118 C25.2516402,14.5130588 26.35353,13.9688191 27.6390681,13.6059927 C28.9246061,13.2431662 30.4856166,13.061753 32.3220995,13.061753 C33.88311,13.061753 35.3522963,13.1524596 36.7296585,13.4245794 C38.1070207,13.6966993 39.2089105,13.9688191 40.2189761,14.4223522 L39.2089105,19.683336 C38.6579656,19.5019228 37.7397241,19.229803 36.5460102,18.8669765 C35.3522963,18.50415 33.9749341,18.3227368 32.4139237,18.3227368 C30.8529132,18.3227368 29.7510234,18.50415 29.2000785,18.8669765 C28.6491337,19.229803 28.3736612,19.683336 28.3736612,20.1368691 C28.3736612,20.4996956 28.4654854,20.8625221 28.7409578,21.1346419 C29.0164302,21.4067618 29.2919027,21.6788816 29.7510234,21.9510015 C30.2101441,22.2231213 30.6692649,22.4045346 31.2202098,22.6766544 C31.7711546,22.8580677 32.4139237,23.1301875 33.0566927,23.3116008 C33.9749341,23.5837206 34.8931756,23.9465471 35.9032412,24.3093736 C36.9133068,24.6722 37.7397241,25.1257331 38.5661415,25.6699728 C39.3925588,26.2142125 40.0353278,26.9398655 40.4944485,27.756225 C40.9535693,28.5725846 41.2290417,29.661064 41.2290417,30.9309566 C41.2290417,31.9287294 41.0453934,32.8357956 40.6780968,33.7428618 C40.3108002,34.649928 39.6680312,35.3755809 38.8416139,36.0105272 C38.0151966,36.6454736 36.8214827,37.1897133 35.4441205,37.5525397 C34.0667583,37.9153662 32.3220995,38.0967794 30.3019683,38.0967794 C28.1900129,38.0967794 26.4453541,37.8246596 24.9761678,37.3711265 C23.5069815,36.9175934 22.3132676,36.4640603 21.4868502,36.1012339 L22.4969159,30.9309566 C23.6906298,31.3844897 24.9761678,31.8380228 26.2617059,32.2008493 C27.5472439,32.4729691 28.9246061,32.745089 30.3019683,32.745089 Z" id="Path"></path>
                                    <path d="M44.534711,25.7606794 C44.534711,23.6744272 44.9020076,21.8602949 45.5447766,20.2275758 C46.1875456,18.6855633 47.0139629,17.324964 48.1158527,16.2364846 C49.1259183,15.1480052 50.4114563,14.4223522 51.6969944,13.8781125 C53.0743566,13.3338728 54.4517188,13.061753 55.9209051,13.061753 C59.5020468,13.061753 62.1649471,14.0595257 64.00143,16.145778 C65.8379129,18.2320302 66.7561544,21.2253485 66.7561544,25.2164397 C66.7561544,25.5792662 66.7561544,26.0327993 66.7561544,26.4863324 C66.7561544,26.9398655 66.7561544,27.3026919 66.6643302,27.5748118 L50.9624012,27.5748118 C50.9624012,29.1168243 51.6051702,30.2960103 52.8907083,31.2030765 C54.1762463,32.1101427 55.829081,32.5636758 57.8492122,32.5636758 C59.1347502,32.5636758 60.3284642,32.4729691 61.4303539,32.2008493 C62.5322437,31.9287294 63.5423093,31.6566096 64.2769024,31.3844897 L65.1033198,36.6454736 C64.00143,37.0083 62.8995402,37.3711265 61.6140022,37.5525397 C60.4202883,37.8246596 59.0429261,37.9153662 57.4819156,37.9153662 C55.4617844,37.9153662 53.6253015,37.6432464 51.9724668,37.0990067 C50.3196322,36.5547669 48.94227,35.829114 47.8403802,34.7406346 C46.7384905,33.7428618 45.820249,32.4729691 45.17748,30.9309566 C44.8101834,29.5703574 44.534711,27.756225 44.534711,25.7606794 Z M60.6039366,23.3116008 C60.6039366,22.6766544 60.5121124,22.0417081 60.3284642,21.4974684 C60.1448159,20.9532287 59.8693434,20.408989 59.5020468,19.9554559 C59.1347502,19.5019228 58.6756295,19.1390963 58.0328605,18.7762699 C57.4819156,18.50415 56.7473224,18.3227368 55.9209051,18.3227368 C55.0944878,18.3227368 54.3598946,18.4134434 53.8089498,18.6855633 C53.2580049,18.9576831 52.70706,19.3205096 52.3397634,19.7740427 C51.9724668,20.2275758 51.6051702,20.7718155 51.421522,21.4067618 C51.2378737,22.0417081 51.0542254,22.6766544 50.9624012,23.3116008 L60.6039366,23.3116008 Z" id="Shape"></path>
                                    <path d="M89.3448944,20.0461625 C88.9775978,19.9554559 88.4266529,19.8647493 87.8757081,19.7740427 C87.3247632,19.683336 86.7738183,19.5926294 86.1310493,19.5019228 C85.5801044,19.4112162 85.0291595,19.3205096 84.4782146,19.3205096 C83.9272698,19.3205096 83.468149,19.229803 83.1008524,19.229803 C82.182611,19.229803 81.3561937,19.229803 80.5297763,19.3205096 C79.703359,19.4112162 78.7851176,19.5926294 77.9587003,19.7740427 L77.9587003,37.3711265 L71.6228342,37.3711265 L71.6228342,15.2387118 C73.2756688,14.6037655 75.0203276,14.1502324 76.7649863,13.7874059 C78.5096451,13.4245794 80.5297763,13.2431662 82.9172042,13.2431662 C83.2845007,13.2431662 83.7436215,13.2431662 84.3863905,13.3338728 C85.0291595,13.3338728 85.6719285,13.4245794 86.4065217,13.515286 C87.1411149,13.6059927 87.8757081,13.6966993 88.6103012,13.7874059 C89.3448944,13.8781125 89.9876634,14.0595257 90.5386083,14.240939 L89.3448944,20.0461625 Z" id="Path"></path>
                                    <path d="M102.200275,37.3711265 C100.639264,34.3778081 99.0782539,30.84025 97.5172434,26.8491588 C95.9562329,22.8580677 94.3952224,18.4134434 93.0178603,13.6966993 L99.6291988,13.6966993 C99.9046712,14.9665919 100.271968,16.3271912 100.731089,17.7784971 C101.190209,19.229803 101.64933,20.6811088 102.108451,22.1324147 C102.567571,23.5837206 103.026692,25.0350265 103.577637,26.3956258 C104.036758,27.756225 104.495879,29.0261177 104.954999,30.2053037 C105.41412,29.0261177 105.873241,27.8469316 106.424186,26.3956258 C106.97513,25.0350265 107.526075,23.5837206 108.07702,22.1324147 C108.627965,20.6811088 109.087086,19.229803 109.638031,17.7784971 C110.097151,16.3271912 110.556272,14.9665919 110.831745,13.6966993 L117.167611,13.6966993 C115.698424,18.50415 114.137414,22.8580677 112.392755,26.8491588 C110.648096,30.84025 108.995262,34.3778081 107.526075,37.3711265 L102.200275,37.3711265 Z" id="Path"></path>
                                    <path d="M117.994028,25.7606794 C117.994028,23.6744272 118.361325,21.8602949 119.004094,20.2275758 C119.646863,18.6855633 120.47328,17.324964 121.57517,16.2364846 C122.585235,15.1480052 123.870773,14.4223522 125.156311,13.8781125 C126.533674,13.3338728 127.911036,13.061753 129.380222,13.061753 C132.961364,13.061753 135.624264,14.0595257 137.460747,16.145778 C139.29723,18.2320302 140.215471,21.2253485 140.215471,25.2164397 C140.215471,25.5792662 140.215471,26.0327993 140.215471,26.4863324 C140.215471,26.9398655 140.215471,27.3026919 140.123647,27.5748118 L124.605367,27.5748118 C124.605367,29.1168243 125.248136,30.2960103 126.533674,31.2030765 C127.819212,32.1101427 129.472046,32.5636758 131.492178,32.5636758 C132.777716,32.5636758 133.97143,32.4729691 135.073319,32.2008493 C136.175209,31.9287294 137.185275,31.6566096 137.919868,31.3844897 L138.746285,36.6454736 C137.644395,37.0083 136.542506,37.3711265 135.256968,37.5525397 C133.97143,37.733953 132.685891,37.9153662 131.124881,37.9153662 C129.10475,37.9153662 127.268267,37.6432464 125.615432,37.0990067 C123.962598,36.5547669 122.585235,35.829114 121.483346,34.7406346 C120.381456,33.7428618 119.463214,32.4729691 118.820445,30.9309566 C118.361325,29.5703574 117.994028,27.756225 117.994028,25.7606794 Z M134.063254,23.3116008 C134.063254,22.6766544 133.97143,22.0417081 133.787781,21.4974684 C133.604133,20.9532287 133.32866,20.408989 132.961364,19.9554559 C132.594067,19.5019228 132.134947,19.1390963 131.492178,18.7762699 C130.941233,18.50415 130.20664,18.3227368 129.380222,18.3227368 C128.553805,18.3227368 127.819212,18.4134434 127.268267,18.6855633 C126.717322,18.9576831 126.166377,19.3205096 125.79908,19.7740427 C125.431784,20.2275758 125.064487,20.7718155 124.880839,21.4067618 C124.697191,22.0417081 124.513542,22.6766544 124.421718,23.3116008 L134.063254,23.3116008 Z" id="Shape"></path>
                                    <path d="M162.804211,20.0461625 C162.436915,19.9554559 161.88597,19.8647493 161.335025,19.7740427 C160.78408,19.683336 160.233135,19.5926294 159.590366,19.5019228 C159.039421,19.4112162 158.488477,19.3205096 157.937532,19.3205096 C157.386587,19.3205096 156.927466,19.229803 156.56017,19.229803 C155.641928,19.229803 154.815511,19.229803 153.989093,19.3205096 C153.162676,19.4112162 152.244435,19.5926294 151.418017,19.7740427 L151.418017,37.3711265 L145.082151,37.3711265 L145.082151,15.2387118 C146.734986,14.6037655 148.479645,14.1502324 150.224303,13.7874059 C151.968962,13.4245794 153.989093,13.2431662 156.376521,13.2431662 C156.743818,13.2431662 157.202939,13.2431662 157.845708,13.3338728 C158.488477,13.3338728 159.131246,13.4245794 159.865839,13.515286 C160.600432,13.6059927 161.335025,13.6966993 162.069618,13.7874059 C162.804211,13.8781125 163.446981,14.0595257 163.997925,14.240939 L162.804211,20.0461625 Z" id="Path"></path>
                                    <path d="M185.668424,36.3733537 C185.5766,36.4640603 185.301127,36.5547669 184.933831,36.7361802 C184.566534,36.9175934 184.107413,37.0990067 183.556469,37.2804199 C183.005524,37.4618331 182.270931,37.6432464 181.444513,37.733953 C180.618096,37.8246596 179.699854,37.9153662 178.597965,37.9153662 C175.751416,37.9153662 173.639461,37.0990067 172.262099,35.3755809 C170.976561,33.6521552 170.241967,31.2030765 170.241967,27.9376383 L170.241967,7.89147574 L163.630629,7.89147574 L163.630629,2.72119853 L176.577833,2.72119853 L176.577833,28.3911713 C176.577833,30.0238905 176.94513,31.1123699 177.587899,31.6566096 C178.230668,32.2008493 179.057085,32.4729691 180.067151,32.4729691 C181.352689,32.4729691 182.362755,32.2915559 183.189172,31.9287294 C184.015589,31.565903 184.566534,31.3844897 184.842007,31.2937831 L185.668424,36.3733537 Z" id="Path"></path>
                                    <path d="M187.596731,25.7606794 C187.596731,23.6744272 187.964028,21.8602949 188.606797,20.2275758 C189.249566,18.6855633 190.075983,17.324964 191.177873,16.2364846 C192.187938,15.1480052 193.473476,14.4223522 194.759014,13.8781125 C196.136377,13.3338728 197.513739,13.061753 198.982925,13.061753 C202.564067,13.061753 205.226967,14.0595257 207.06345,16.145778 C208.899933,18.2320302 209.818174,21.2253485 209.818174,25.2164397 C209.818174,25.5792662 209.818174,26.0327993 209.818174,26.4863324 C209.818174,26.9398655 209.818174,27.3026919 209.72635,27.5748118 L194.20807,27.5748118 C194.20807,29.1168243 194.850839,30.2960103 196.136377,31.2030765 C197.421915,32.1101427 199.074749,32.5636758 201.094881,32.5636758 C202.380419,32.5636758 203.574132,32.4729691 204.676022,32.2008493 C205.777912,31.9287294 206.787978,31.6566096 207.522571,31.3844897 L208.348988,36.6454736 C207.247098,37.0083 206.145209,37.3711265 204.859671,37.5525397 C203.574132,37.733953 202.288594,37.9153662 200.727584,37.9153662 C198.707453,37.9153662 196.87097,37.6432464 195.218135,37.0990067 C193.565301,36.5547669 192.187938,35.829114 191.086049,34.7406346 C189.984159,33.7428618 189.065917,32.4729691 188.423148,30.9309566 C187.872203,29.5703574 187.596731,27.756225 187.596731,25.7606794 Z M203.665957,23.3116008 C203.665957,22.6766544 203.574132,22.0417081 203.390484,21.4974684 C203.206836,20.9532287 202.931363,20.408989 202.564067,19.9554559 C202.19677,19.5019228 201.73765,19.1390963 201.094881,18.7762699 C200.543936,18.50415 199.809342,18.3227368 198.982925,18.3227368 C198.156508,18.3227368 197.421915,18.4134434 196.87097,18.6855633 C196.320025,18.9576831 195.76908,19.3205096 195.401783,19.7740427 C195.034487,20.2275758 194.66719,20.7718155 194.483542,21.4067618 C194.299894,22.0417081 194.116245,22.6766544 194.024421,23.3116008 L203.665957,23.3116008 Z" id="Shape"></path>
                                    <path d="M221.938962,32.745089 C223.499972,32.745089 224.601862,32.6543824 225.428279,32.3822625 C226.254697,32.1101427 226.621993,31.7473162 226.621993,31.0216633 C226.621993,30.5681302 226.530169,30.2053037 226.254697,29.9331839 C225.979224,29.661064 225.611928,29.3889441 225.152807,29.1168243 C224.693686,28.9354111 224.142741,28.6632912 223.591796,28.481878 C223.040851,28.3004647 222.398082,28.1190515 221.755313,27.8469316 C220.837072,27.5748118 219.918831,27.3026919 218.908765,26.9398655 C217.990523,26.577039 217.072282,26.1235059 216.337689,25.5792662 C215.511271,25.0350265 214.868502,24.4000802 214.409382,23.493014 C213.858437,22.6766544 213.674789,21.6788816 213.674789,20.408989 C213.674789,19.4112162 213.858437,18.4134434 214.225733,17.5970838 C214.59303,16.6900177 215.235799,15.8736581 216.062216,15.2387118 C216.888634,14.5130588 217.990523,13.9688191 219.276061,13.6059927 C220.5616,13.2431662 222.12261,13.061753 223.959093,13.061753 C225.520103,13.061753 226.98929,13.1524596 228.366652,13.4245794 C229.744014,13.6966993 230.845904,13.9688191 231.85597,14.4223522 L230.845904,19.683336 C230.294959,19.5019228 229.376718,19.229803 228.183004,18.8669765 C226.98929,18.50415 225.611928,18.3227368 224.050917,18.3227368 C222.489907,18.3227368 221.388017,18.50415 220.837072,18.8669765 C220.286127,19.229803 220.010655,19.683336 220.010655,20.1368691 C220.010655,20.4996956 220.102479,20.8625221 220.377951,21.1346419 C220.653424,21.4067618 220.928896,21.6788816 221.388017,21.9510015 C221.847138,22.2231213 222.306258,22.4045346 222.857203,22.6766544 C223.408148,22.8580677 224.050917,23.1301875 224.693686,23.3116008 C225.611928,23.5837206 226.530169,23.9465471 227.540235,24.3093736 C228.5503,24.6722 229.376718,25.1257331 230.203135,25.6699728 C231.029552,26.2142125 231.672321,26.9398655 232.131442,27.756225 C232.590563,28.5725846 232.866035,29.661064 232.866035,30.9309566 C232.866035,31.9287294 232.682387,32.8357956 232.31509,33.7428618 C231.947794,34.649928 231.305025,35.3755809 230.478607,36.0105272 C229.65219,36.6454736 228.458476,37.1897133 227.081114,37.5525397 C225.703752,37.9153662 223.959093,38.0967794 221.938962,38.0967794 C219.827006,38.0967794 218.082348,37.8246596 216.613161,37.3711265 C215.143975,36.9175934 213.950261,36.4640603 213.123844,36.1012339 L214.133909,30.9309566 C215.327623,31.3844897 216.613161,31.8380228 217.898699,32.2008493 C219.184237,32.4729691 220.5616,32.745089 221.938962,32.745089 Z" id="Path"></path>
                                    <path d="M245.354119,32.745089 C246.91513,32.745089 248.017019,32.6543824 248.843437,32.3822625 C249.669854,32.1101427 250.037151,31.7473162 250.037151,31.0216633 C250.037151,30.5681302 249.945326,30.2053037 249.669854,29.9331839 C249.394381,29.661064 249.027085,29.3889441 248.567964,29.1168243 C248.108843,28.9354111 247.557899,28.6632912 247.006954,28.481878 C246.456009,28.3004647 245.81324,28.1190515 245.170471,27.8469316 C244.252229,27.5748118 243.333988,27.3026919 242.323922,26.9398655 C241.405681,26.577039 240.487439,26.1235059 239.752846,25.5792662 C238.926429,25.0350265 238.28366,24.4000802 237.824539,23.493014 C237.273594,22.6766544 237.089946,21.6788816 237.089946,20.408989 C237.089946,19.4112162 237.273594,18.4134434 237.640891,17.5970838 C238.008187,16.6900177 238.650956,15.8736581 239.477374,15.2387118 C240.303791,14.5130588 241.405681,13.9688191 242.691219,13.6059927 C243.976757,13.2431662 245.537767,13.061753 247.37425,13.061753 C248.935261,13.061753 250.404447,13.1524596 251.781809,13.4245794 C253.159171,13.6966993 254.261061,13.9688191 255.271127,14.4223522 L254.261061,19.683336 C253.710116,19.5019228 252.791875,19.229803 251.598161,18.8669765 C250.404447,18.50415 249.027085,18.3227368 247.466074,18.3227368 C245.905064,18.3227368 244.803174,18.50415 244.252229,18.8669765 C243.701284,19.229803 243.425812,19.683336 243.425812,20.1368691 C243.425812,20.4996956 243.517636,20.8625221 243.793109,21.1346419 C244.068581,21.4067618 244.344053,21.6788816 244.803174,21.9510015 C245.262295,22.2231213 245.721416,22.4045346 246.272361,22.6766544 C246.823305,22.8580677 247.466074,23.1301875 248.108843,23.3116008 C249.027085,23.5837206 249.945326,23.9465471 250.955392,24.3093736 C251.965458,24.6722 252.791875,25.1257331 253.618292,25.6699728 C254.44471,26.2142125 255.087479,26.9398655 255.546599,27.756225 C256.00572,28.5725846 256.281192,29.661064 256.281192,30.9309566 C256.281192,31.9287294 256.097544,32.8357956 255.730248,33.7428618 C255.362951,34.649928 254.720182,35.3755809 253.893765,36.0105272 C253.067347,36.6454736 251.873633,37.1897133 250.496271,37.5525397 C249.118909,37.9153662 247.37425,38.0967794 245.354119,38.0967794 C243.242164,38.0967794 241.497505,37.8246596 240.028319,37.3711265 C238.559132,36.9175934 237.365418,36.4640603 236.539001,36.1012339 L237.549067,30.9309566 C238.742781,31.3844897 240.028319,31.8380228 241.313857,32.2008493 C242.599395,32.4729691 243.976757,32.745089 245.354119,32.745089 Z" id="Path"></path>
                                    <polygon id="Path" points="264.820838 43.6298831 258.301324 43.6298831 272.625891 0.0907066177 279.053581 0.0907066177"></polygon>
                                    <polygon id="Path" points="6.97863512 43.6298831 0.459120732 43.6298831 14.7836876 0.0907066177 21.2113778 0.0907066177"></polygon>
                                </g>
                                <polygon id="Path" fill="#0BB9A7" points="411.555824 44.8997758 274.470166 45.0554662 288.878764 0.362826471 425.145798 1.40798332"></polygon>
                                <g id="Group" transform="translate(300.264959, 8.163596)" fill="#FFFFFF">
                                    <path d="M0.0918241463,0.997772795 L11.1107217,0.997772795 C19.9258398,0.997772795 25.9862334,6.53087648 25.9862334,14.8758853 C25.9862334,23.2208941 19.9258398,28.6632912 11.1107217,28.6632912 L0.0918241463,28.6632912 L0.0918241463,0.997772795 Z M11.1107217,23.493014 C16.6201705,23.493014 19.9258398,19.5926294 19.9258398,14.8758853 C19.9258398,9.97772795 16.8956429,6.16805001 11.1107217,6.16805001 L6.06039366,6.16805001 L6.06039366,23.493014 L11.1107217,23.493014 Z" id="Shape"></path>
                                    <path d="M44.1674144,0.997772795 L55.0026637,28.6632912 L48.4831493,28.6632912 L46.7384905,23.8558405 L34.2504066,23.8558405 L32.5057478,28.6632912 L25.9862334,28.6632912 L36.7296585,0.997772795 L44.1674144,0.997772795 Z M40.4944485,6.07734339 L35.8114171,18.7762699 L45.0856559,18.7762699 L40.4944485,6.07734339 Z" id="Shape"></path>
                                    <polygon id="Path" points="62.0731229 17.324964 51.2378737 0.997772795 58.0328605 0.997772795 65.0114956 12.1546868 71.8983066 0.997772795 78.6932934 0.997772795 67.9498683 17.324964 67.9498683 28.6632912 61.9812988 28.6632912 61.9812988 17.324964"></polygon>
                                    <path d="M81.539842,20.3182824 C83.468149,22.313828 86.59017,24.0372537 90.4467842,24.0372537 C93.7524534,24.0372537 95.3134639,22.4952412 95.3134639,20.9532287 C95.3134639,18.8669765 92.834212,18.1413235 89.6203668,17.4156706 C85.0291595,16.4178978 79.1524142,15.1480052 79.1524142,8.97995516 C79.1524142,4.35391765 83.1926766,0.634946324 89.8040151,0.634946324 C94.2115742,0.634946324 97.9763642,1.99554559 100.731089,4.53533089 L97.4254193,8.88924854 C95.1298156,6.80299633 92.0996188,5.89593015 89.4367185,5.89593015 C86.7738183,5.89593015 85.304632,7.07511618 85.304632,8.7078353 C85.304632,10.6126743 87.6920598,11.156914 90.9059049,11.8825669 C95.4971122,12.8803397 101.373858,14.3316456 101.373858,20.408989 C101.373858,25.4885596 97.7008917,29.2982375 90.1713117,29.2982375 C84.7536871,29.2982375 80.8970729,27.4841052 78.2341727,24.9443199 L81.539842,20.3182824 Z" id="Path"></path>
                                </g>
                                <path d="M249.486206,46.3510817 L239.018253,46.3510817 C238.191836,46.3510817 237.549067,45.7161353 237.549067,44.8997758 C237.549067,44.0834162 238.191836,43.4484699 239.018253,43.4484699 L249.486206,43.4484699 C250.312623,43.4484699 250.955392,44.0834162 250.955392,44.8997758 C250.955392,45.7161353 250.404447,46.3510817 249.486206,46.3510817 Z M230.019487,46.3510817 L219.551534,46.3510817 C218.725117,46.3510817 218.082348,45.7161353 218.082348,44.8997758 C218.082348,44.0834162 218.725117,43.4484699 219.551534,43.4484699 L230.019487,43.4484699 C230.845904,43.4484699 231.488673,44.0834162 231.488673,44.8997758 C231.488673,45.7161353 230.845904,46.3510817 230.019487,46.3510817 Z M210.552768,46.3510817 L200.084815,46.3510817 C199.258398,46.3510817 198.615629,45.7161353 198.615629,44.8997758 C198.615629,44.0834162 199.258398,43.4484699 200.084815,43.4484699 L210.552768,43.4484699 C211.379185,43.4484699 212.021954,44.0834162 212.021954,44.8997758 C212.021954,45.7161353 211.379185,46.3510817 210.552768,46.3510817 Z M190.994224,46.3510817 L180.526272,46.3510817 C179.699854,46.3510817 179.057085,45.7161353 179.057085,44.8997758 C179.057085,44.0834162 179.699854,43.4484699 180.526272,43.4484699 L190.994224,43.4484699 C191.820642,43.4484699 192.463411,44.0834162 192.463411,44.8997758 C192.463411,45.7161353 191.820642,46.3510817 190.994224,46.3510817 Z M171.527505,46.3510817 L161.059553,46.3510817 C160.233135,46.3510817 159.590366,45.7161353 159.590366,44.8997758 C159.590366,44.0834162 160.233135,43.4484699 161.059553,43.4484699 L171.527505,43.4484699 C172.353923,43.4484699 172.996692,44.0834162 172.996692,44.8997758 C172.996692,45.7161353 172.353923,46.3510817 171.527505,46.3510817 Z M151.968962,46.3510817 L141.50101,46.3510817 C140.674592,46.3510817 140.031823,45.7161353 140.031823,44.8997758 C140.031823,44.0834162 140.674592,43.4484699 141.50101,43.4484699 L151.968962,43.4484699 C152.79538,43.4484699 153.438149,44.0834162 153.438149,44.8997758 C153.438149,45.7161353 152.79538,46.3510817 151.968962,46.3510817 Z M132.502243,46.3510817 L122.03429,46.3510817 C121.207873,46.3510817 120.565104,45.7161353 120.565104,44.8997758 C120.565104,44.0834162 121.207873,43.4484699 122.03429,43.4484699 L132.502243,43.4484699 C133.32866,43.4484699 133.97143,44.0834162 133.97143,44.8997758 C133.97143,45.7161353 133.32866,46.3510817 132.502243,46.3510817 Z M112.9437,46.3510817 L102.475747,46.3510817 C101.64933,46.3510817 101.006561,45.7161353 101.006561,44.8997758 C101.006561,44.0834162 101.64933,43.4484699 102.475747,43.4484699 L112.9437,43.4484699 C113.770117,43.4484699 114.412886,44.0834162 114.412886,44.8997758 C114.412886,45.7161353 113.770117,46.3510817 112.9437,46.3510817 Z M93.476981,46.3510817 L83.0090283,46.3510817 C82.182611,46.3510817 81.539842,45.7161353 81.539842,44.8997758 C81.539842,44.0834162 82.182611,43.4484699 83.0090283,43.4484699 L93.476981,43.4484699 C94.3033983,43.4484699 94.9461673,44.0834162 94.9461673,44.8997758 C94.9461673,45.7161353 94.3033983,46.3510817 93.476981,46.3510817 Z M74.010262,46.3510817 L63.4504851,46.3510817 C62.6240678,46.3510817 61.9812988,45.7161353 61.9812988,44.8997758 C61.9812988,44.0834162 62.6240678,43.4484699 63.4504851,43.4484699 L73.9184378,43.4484699 C74.7448551,43.4484699 75.3876242,44.0834162 75.3876242,44.8997758 C75.3876242,45.7161353 74.8366793,46.3510817 74.010262,46.3510817 Z M54.4517188,46.3510817 L43.9837661,46.3510817 C43.1573488,46.3510817 42.5145798,45.7161353 42.5145798,44.8997758 C42.5145798,44.0834162 43.1573488,43.4484699 43.9837661,43.4484699 L54.4517188,43.4484699 C55.2781361,43.4484699 55.9209051,44.0834162 55.9209051,44.8997758 C55.9209051,45.7161353 55.2781361,46.3510817 54.4517188,46.3510817 Z M34.9849998,46.3510817 L24.4252229,46.3510817 C23.5988056,46.3510817 22.9560366,45.7161353 22.9560366,44.8997758 C22.9560366,44.0834162 23.5988056,43.4484699 24.4252229,43.4484699 L34.8931756,43.4484699 C35.7195929,43.4484699 36.362362,44.0834162 36.362362,44.8997758 C36.362362,45.7161353 35.8114171,46.3510817 34.9849998,46.3510817 Z" id="Shape" fill="#FFFFFF"></path>
                                <g id="virtual" transform="translate(240.000000, 53.000000)">
                                    <g id="path-2-link" fill="#000000">
                                        <path d="M3.718189,35.7029492 C2.937218,32.6278982 2.232657,29.0882635 1.604485,25.083939 C0.976313,21.0796144 0.526413,16.6783025 0.254771,11.8798714 L6.774145,11.8798714 C6.8081,13.0963751 6.859032,14.4311299 6.926943,15.8841759 C6.994853,17.337222 7.088229,18.7986941 7.207072,20.268636 C7.325916,21.7385779 7.461735,23.20005 7.614533,24.6530961 C7.767332,26.1061421 7.928617,27.440897 8.098393,28.6574006 C8.811453,27.6436476 9.575434,26.43561 10.39036,25.0332516 C11.205286,23.6308932 11.994734,22.1609733 12.758727,20.6234478 C13.522719,19.0859223 14.22728,17.5568677 14.87243,16.0362381 C15.517579,14.5156086 16.0269,13.1301668 16.400408,11.8798714 L23.123512,11.8798714 C22.308586,14.0425446 21.340877,16.26432 20.220354,18.5452644 C19.099831,20.8262088 17.919904,23.0226408 16.680537,25.1346264 C15.441171,27.2466119 14.184846,29.2149529 12.911524,31.0397084 C11.638203,32.8644639 10.458276,34.418862 9.371708,35.7029492 L3.718189,35.7029492 Z M43.700286,35.044013 C42.443942,35.5170977 41.264015,35.8381147 40.16047,36.0070736 C39.056924,36.1760324 38.029794,36.2605106 37.079047,36.2605106 C34.668225,36.2605106 32.885601,35.6776113 31.731123,34.5117953 C30.576645,33.3459793 29.999414,31.6986552 29.999414,29.5697738 C29.999414,28.4546455 30.186165,27.1536819 30.559673,25.6668441 L32.596977,17.0499861 L25.975738,17.0499861 L27.249054,11.8798714 L40.135003,11.8798714 L36.671586,26.427155 C36.467855,27.1367822 36.36599,27.7619205 36.36599,28.3025888 C36.36599,29.9921773 37.231836,30.8369588 38.963553,30.8369588 C39.540792,30.8369588 40.219887,30.7778241 41.000858,30.6595529 C41.781828,30.5412817 42.647674,30.3131907 43.598421,29.975273 L43.700286,35.044013 Z M37.231845,8.9906896 C36.145277,8.9906896 35.270943,8.7034639 34.608815,8.1290038 C33.946688,7.5545438 33.61563,6.6590753 33.61563,5.4425716 C33.61563,4.800528 33.734471,4.2007304 33.972158,3.643169 C34.209844,3.0856048 34.523926,2.6209749 34.914411,2.2492655 C35.304896,1.877556 35.754797,1.5818825 36.264125,1.362236 C36.773454,1.1425895 37.299752,1.0327679 37.843036,1.0327679 C38.827738,1.0327679 39.685095,1.3199936 40.415133,1.8944537 C41.14517,2.4689137 41.510184,3.3981734 41.510184,4.6822607 C41.510184,5.2905125 41.382854,5.8649639 41.128189,6.4056322 C40.873525,6.9463005 40.542466,7.4024826 40.135003,7.774192 C39.72754,8.1459015 39.269152,8.441575 38.759823,8.6612215 C38.250494,8.880868 37.741173,8.9906896 37.231845,8.9906896 Z M70.643636,18.0637341 C69.998486,17.8271917 69.234504,17.6413398 68.351668,17.5061727 C67.468832,17.3710057 66.38228,17.3034231 65.091981,17.3034231 C64.209145,17.3034231 63.300856,17.3625578 62.367087,17.480829 C61.433318,17.5991002 60.575961,17.7934 59.79499,18.0637341 L55.567584,35.7029492 L49.302873,35.7029492 L54.650797,13.4511808 C56.246693,12.8091372 57.969896,12.3107161 59.820456,11.9559025 C61.671017,11.6010889 63.411197,11.4236848 65.041049,11.4236848 C66.942542,11.4236848 68.495971,11.5081629 69.701382,11.6771218 C70.906793,11.8460806 72.018811,12.0657238 73.037468,12.336058 L70.643636,18.0637341 Z M81.645079,17.0499861 L76.857414,17.0499861 L78.130729,11.8798714 L82.867461,11.8798714 L84.293575,5.8987582 L90.863881,4.8850103 L89.132172,11.8798714 L98.249109,11.8798714 L96.975794,17.0499861 L87.90979,17.0499861 L85.668755,26.3257802 C85.498979,27.1705745 85.414092,27.8295041 85.414092,28.3025888 C85.414092,29.3163419 85.762128,29.9921671 86.45821,30.3300848 C87.154293,30.6680025 87.94374,30.8369588 88.826577,30.8369588 C89.743368,30.8369588 90.685612,30.7271372 91.653336,30.5074907 C92.621061,30.2878442 93.563305,29.9921707 94.480096,29.6204612 L94.429164,34.8412634 C93.376551,35.3143481 92.213601,35.6691564 90.94028,35.9056988 C89.666958,36.1422411 88.402145,36.2605106 87.145801,36.2605106 C84.429381,36.2605106 82.400586,35.6776113 81.059354,34.5117953 C79.718122,33.3459793 79.047516,31.6479683 79.047516,29.4177116 C79.047516,28.8770433 79.081471,28.3279353 79.149381,27.7703711 C79.217292,27.212807 79.336133,26.6130121 79.505909,25.9709685 L81.645079,17.0499861 Z M107.977237,36.2605106 C105.226863,36.2605106 103.30842,35.6184766 102.221853,34.3343894 C101.135285,33.0503022 100.592009,31.2931566 100.592009,29.0628998 C100.592009,27.5084785 100.829692,25.700646 101.305066,23.6393481 L104.157292,11.8798714 L110.422002,11.8798714 L107.722574,23.2338489 C107.450932,24.2476019 107.247204,25.1684138 107.111383,25.9963122 C106.975562,26.8242105 106.907652,27.5591704 106.907652,28.201214 C106.907652,29.958386 107.756521,30.8369588 109.454283,30.8369588 C110.40503,30.8369588 111.160522,30.642659 111.720784,30.2540537 C112.281045,29.8654484 112.815832,29.3839229 113.325161,28.8094628 C113.393072,28.3363781 113.452492,27.880196 113.503425,27.440903 C113.554358,27.00161 113.664711,26.4947411 113.834487,25.9202811 L117.196039,11.8798714 L123.46075,11.8798714 L120.048265,25.9709685 C119.912444,26.5792203 119.802092,27.1790152 119.717203,27.7703711 C119.632315,28.3617271 119.589872,28.961522 119.589872,29.5697738 C119.589872,30.5497351 119.691737,31.5043383 119.895468,32.4336119 C120.099199,33.3628855 120.353859,34.2836974 120.659457,35.1960752 L115.158735,36.1084484 L114.904072,35.6015744 C114.802206,35.3988237 114.700342,35.1791805 114.598476,34.9426382 C114.496611,34.7060958 114.411724,34.4949004 114.343813,34.3090457 C114.275903,34.1231909 114.224971,33.9795781 114.191015,33.8782028 C113.511911,34.3850793 112.629088,34.9088439 111.54252,35.4495122 C110.455952,35.9901805 109.267536,36.2605106 107.977237,36.2605106 Z M134.97152,30.9383336 C135.922266,30.9383336 136.720202,30.7271382 137.365352,30.3047411 C138.010502,29.882344 138.570755,29.3839229 139.046128,28.8094628 C139.114039,28.3363781 139.181948,27.880196 139.249859,27.440903 C139.317769,27.00161 139.419633,26.4947411 139.555454,25.9202811 L141.745556,16.8979239 C141.372049,16.7965486 140.981569,16.7289661 140.574106,16.6951743 C140.166643,16.6613826 139.776164,16.6444869 139.402656,16.6444869 C138.214223,16.6444869 137.144649,16.9232648 136.193902,17.480829 C135.243155,18.0383932 134.428242,18.7733532 133.749137,19.6857309 C133.070032,20.5981087 132.552222,21.6456378 132.195692,22.8283497 C131.839162,24.0110616 131.6609,25.227547 131.6609,26.4778424 C131.6609,27.3564284 131.737298,28.0829406 131.890097,28.6574006 C132.042895,29.2318607 132.263601,29.6880427 132.552221,30.0259604 C132.84084,30.3638781 133.188876,30.6004169 133.596339,30.735584 C134.003802,30.8707511 134.462191,30.9383336 134.97152,30.9383336 Z M132.679552,36.2605106 C130.438506,36.2267188 128.67286,35.4241763 127.382561,33.8528591 C126.092262,32.2815418 125.447122,29.9921839 125.447122,26.9847164 C125.447122,24.6868762 125.837601,22.5749223 126.618572,20.6487915 C127.399542,18.7226607 128.469116,17.0753367 129.827326,15.70677 C131.185536,14.3382034 132.77292,13.2737787 134.589525,12.5134639 C136.40613,11.7531491 138.333061,11.3729974 140.370376,11.3729974 C141.762541,11.3729974 143.171662,11.5081624 144.597782,11.7784966 C146.023903,12.0488307 147.466979,12.4712215 148.927054,13.0456816 L145.769232,25.9709685 C145.633411,26.5792203 145.531547,27.1790152 145.463637,27.7703711 C145.395726,28.3617271 145.361772,28.961522 145.361772,29.5697738 C145.361772,30.5497351 145.455147,31.5043383 145.641901,32.4336119 C145.828655,33.3628855 146.074827,34.2836974 146.380424,35.1960752 L140.879702,36.1084484 L140.625039,35.6015744 C140.523173,35.3988237 140.421309,35.1791805 140.319443,34.9426382 C140.217578,34.7060958 140.132691,34.4949004 140.06478,34.3090457 C139.99687,34.1231909 139.945938,33.9795781 139.911982,33.8782028 C139.232878,34.3850793 138.3161,34.9088439 137.161622,35.4495122 C136.007143,35.9901805 134.513135,36.2605106 132.679552,36.2605106 Z M170.828076,34.6892012 C170.692255,34.7567847 170.429105,34.8835019 170.03862,35.0693567 C169.648135,35.2552114 169.130325,35.4326155 168.485176,35.6015744 C167.840026,35.7705332 167.084533,35.9225939 166.218675,36.057761 C165.352816,36.192928 164.393595,36.2605106 163.340982,36.2605106 C161.032026,36.2605106 159.300334,35.6691635 158.145856,34.4864516 C156.991378,33.3037397 156.414147,31.6479678 156.414147,29.5190864 C156.414147,28.9446264 156.456591,28.3448315 156.541479,27.7196837 C156.626367,27.094536 156.753697,26.4440542 156.923474,25.7682189 L161.660206,6.000133 L155.038967,6.000133 L156.26135,0.8300183 L169.147299,0.8300183 L163.137252,26.173718 C163.069341,26.5116357 162.992943,26.8748918 162.908055,27.2634971 C162.823167,27.6521025 162.780723,27.9984629 162.780723,28.3025888 C162.780723,28.9784242 162.967475,29.5697713 163.340982,30.0766478 C163.71449,30.5835243 164.478471,30.8369588 165.63295,30.8369588 C166.108323,30.8369588 166.592178,30.7947197 167.084529,30.7102403 C167.57688,30.6257609 168.043757,30.5159393 168.485176,30.3807722 C168.926594,30.2456051 169.317073,30.1273357 169.656626,30.0259604 C169.996178,29.9245851 170.250838,29.840107 170.420615,29.7725234 L170.828076,34.6892012 Z" id="path-2"></path>
                                    </g>
                                    <g id="path-2-link" fill="#FFFFFF">
                                        <path d="M3.718189,35.7029492 C2.937218,32.6278982 2.232657,29.0882635 1.604485,25.083939 C0.976313,21.0796144 0.526413,16.6783025 0.254771,11.8798714 L6.774145,11.8798714 C6.8081,13.0963751 6.859032,14.4311299 6.926943,15.8841759 C6.994853,17.337222 7.088229,18.7986941 7.207072,20.268636 C7.325916,21.7385779 7.461735,23.20005 7.614533,24.6530961 C7.767332,26.1061421 7.928617,27.440897 8.098393,28.6574006 C8.811453,27.6436476 9.575434,26.43561 10.39036,25.0332516 C11.205286,23.6308932 11.994734,22.1609733 12.758727,20.6234478 C13.522719,19.0859223 14.22728,17.5568677 14.87243,16.0362381 C15.517579,14.5156086 16.0269,13.1301668 16.400408,11.8798714 L23.123512,11.8798714 C22.308586,14.0425446 21.340877,16.26432 20.220354,18.5452644 C19.099831,20.8262088 17.919904,23.0226408 16.680537,25.1346264 C15.441171,27.2466119 14.184846,29.2149529 12.911524,31.0397084 C11.638203,32.8644639 10.458276,34.418862 9.371708,35.7029492 L3.718189,35.7029492 Z M43.700286,35.044013 C42.443942,35.5170977 41.264015,35.8381147 40.16047,36.0070736 C39.056924,36.1760324 38.029794,36.2605106 37.079047,36.2605106 C34.668225,36.2605106 32.885601,35.6776113 31.731123,34.5117953 C30.576645,33.3459793 29.999414,31.6986552 29.999414,29.5697738 C29.999414,28.4546455 30.186165,27.1536819 30.559673,25.6668441 L32.596977,17.0499861 L25.975738,17.0499861 L27.249054,11.8798714 L40.135003,11.8798714 L36.671586,26.427155 C36.467855,27.1367822 36.36599,27.7619205 36.36599,28.3025888 C36.36599,29.9921773 37.231836,30.8369588 38.963553,30.8369588 C39.540792,30.8369588 40.219887,30.7778241 41.000858,30.6595529 C41.781828,30.5412817 42.647674,30.3131907 43.598421,29.975273 L43.700286,35.044013 Z M37.231845,8.9906896 C36.145277,8.9906896 35.270943,8.7034639 34.608815,8.1290038 C33.946688,7.5545438 33.61563,6.6590753 33.61563,5.4425716 C33.61563,4.800528 33.734471,4.2007304 33.972158,3.643169 C34.209844,3.0856048 34.523926,2.6209749 34.914411,2.2492655 C35.304896,1.877556 35.754797,1.5818825 36.264125,1.362236 C36.773454,1.1425895 37.299752,1.0327679 37.843036,1.0327679 C38.827738,1.0327679 39.685095,1.3199936 40.415133,1.8944537 C41.14517,2.4689137 41.510184,3.3981734 41.510184,4.6822607 C41.510184,5.2905125 41.382854,5.8649639 41.128189,6.4056322 C40.873525,6.9463005 40.542466,7.4024826 40.135003,7.774192 C39.72754,8.1459015 39.269152,8.441575 38.759823,8.6612215 C38.250494,8.880868 37.741173,8.9906896 37.231845,8.9906896 Z M70.643636,18.0637341 C69.998486,17.8271917 69.234504,17.6413398 68.351668,17.5061727 C67.468832,17.3710057 66.38228,17.3034231 65.091981,17.3034231 C64.209145,17.3034231 63.300856,17.3625578 62.367087,17.480829 C61.433318,17.5991002 60.575961,17.7934 59.79499,18.0637341 L55.567584,35.7029492 L49.302873,35.7029492 L54.650797,13.4511808 C56.246693,12.8091372 57.969896,12.3107161 59.820456,11.9559025 C61.671017,11.6010889 63.411197,11.4236848 65.041049,11.4236848 C66.942542,11.4236848 68.495971,11.5081629 69.701382,11.6771218 C70.906793,11.8460806 72.018811,12.0657238 73.037468,12.336058 L70.643636,18.0637341 Z M81.645079,17.0499861 L76.857414,17.0499861 L78.130729,11.8798714 L82.867461,11.8798714 L84.293575,5.8987582 L90.863881,4.8850103 L89.132172,11.8798714 L98.249109,11.8798714 L96.975794,17.0499861 L87.90979,17.0499861 L85.668755,26.3257802 C85.498979,27.1705745 85.414092,27.8295041 85.414092,28.3025888 C85.414092,29.3163419 85.762128,29.9921671 86.45821,30.3300848 C87.154293,30.6680025 87.94374,30.8369588 88.826577,30.8369588 C89.743368,30.8369588 90.685612,30.7271372 91.653336,30.5074907 C92.621061,30.2878442 93.563305,29.9921707 94.480096,29.6204612 L94.429164,34.8412634 C93.376551,35.3143481 92.213601,35.6691564 90.94028,35.9056988 C89.666958,36.1422411 88.402145,36.2605106 87.145801,36.2605106 C84.429381,36.2605106 82.400586,35.6776113 81.059354,34.5117953 C79.718122,33.3459793 79.047516,31.6479683 79.047516,29.4177116 C79.047516,28.8770433 79.081471,28.3279353 79.149381,27.7703711 C79.217292,27.212807 79.336133,26.6130121 79.505909,25.9709685 L81.645079,17.0499861 Z M107.977237,36.2605106 C105.226863,36.2605106 103.30842,35.6184766 102.221853,34.3343894 C101.135285,33.0503022 100.592009,31.2931566 100.592009,29.0628998 C100.592009,27.5084785 100.829692,25.700646 101.305066,23.6393481 L104.157292,11.8798714 L110.422002,11.8798714 L107.722574,23.2338489 C107.450932,24.2476019 107.247204,25.1684138 107.111383,25.9963122 C106.975562,26.8242105 106.907652,27.5591704 106.907652,28.201214 C106.907652,29.958386 107.756521,30.8369588 109.454283,30.8369588 C110.40503,30.8369588 111.160522,30.642659 111.720784,30.2540537 C112.281045,29.8654484 112.815832,29.3839229 113.325161,28.8094628 C113.393072,28.3363781 113.452492,27.880196 113.503425,27.440903 C113.554358,27.00161 113.664711,26.4947411 113.834487,25.9202811 L117.196039,11.8798714 L123.46075,11.8798714 L120.048265,25.9709685 C119.912444,26.5792203 119.802092,27.1790152 119.717203,27.7703711 C119.632315,28.3617271 119.589872,28.961522 119.589872,29.5697738 C119.589872,30.5497351 119.691737,31.5043383 119.895468,32.4336119 C120.099199,33.3628855 120.353859,34.2836974 120.659457,35.1960752 L115.158735,36.1084484 L114.904072,35.6015744 C114.802206,35.3988237 114.700342,35.1791805 114.598476,34.9426382 C114.496611,34.7060958 114.411724,34.4949004 114.343813,34.3090457 C114.275903,34.1231909 114.224971,33.9795781 114.191015,33.8782028 C113.511911,34.3850793 112.629088,34.9088439 111.54252,35.4495122 C110.455952,35.9901805 109.267536,36.2605106 107.977237,36.2605106 Z M134.97152,30.9383336 C135.922266,30.9383336 136.720202,30.7271382 137.365352,30.3047411 C138.010502,29.882344 138.570755,29.3839229 139.046128,28.8094628 C139.114039,28.3363781 139.181948,27.880196 139.249859,27.440903 C139.317769,27.00161 139.419633,26.4947411 139.555454,25.9202811 L141.745556,16.8979239 C141.372049,16.7965486 140.981569,16.7289661 140.574106,16.6951743 C140.166643,16.6613826 139.776164,16.6444869 139.402656,16.6444869 C138.214223,16.6444869 137.144649,16.9232648 136.193902,17.480829 C135.243155,18.0383932 134.428242,18.7733532 133.749137,19.6857309 C133.070032,20.5981087 132.552222,21.6456378 132.195692,22.8283497 C131.839162,24.0110616 131.6609,25.227547 131.6609,26.4778424 C131.6609,27.3564284 131.737298,28.0829406 131.890097,28.6574006 C132.042895,29.2318607 132.263601,29.6880427 132.552221,30.0259604 C132.84084,30.3638781 133.188876,30.6004169 133.596339,30.735584 C134.003802,30.8707511 134.462191,30.9383336 134.97152,30.9383336 Z M132.679552,36.2605106 C130.438506,36.2267188 128.67286,35.4241763 127.382561,33.8528591 C126.092262,32.2815418 125.447122,29.9921839 125.447122,26.9847164 C125.447122,24.6868762 125.837601,22.5749223 126.618572,20.6487915 C127.399542,18.7226607 128.469116,17.0753367 129.827326,15.70677 C131.185536,14.3382034 132.77292,13.2737787 134.589525,12.5134639 C136.40613,11.7531491 138.333061,11.3729974 140.370376,11.3729974 C141.762541,11.3729974 143.171662,11.5081624 144.597782,11.7784966 C146.023903,12.0488307 147.466979,12.4712215 148.927054,13.0456816 L145.769232,25.9709685 C145.633411,26.5792203 145.531547,27.1790152 145.463637,27.7703711 C145.395726,28.3617271 145.361772,28.961522 145.361772,29.5697738 C145.361772,30.5497351 145.455147,31.5043383 145.641901,32.4336119 C145.828655,33.3628855 146.074827,34.2836974 146.380424,35.1960752 L140.879702,36.1084484 L140.625039,35.6015744 C140.523173,35.3988237 140.421309,35.1791805 140.319443,34.9426382 C140.217578,34.7060958 140.132691,34.4949004 140.06478,34.3090457 C139.99687,34.1231909 139.945938,33.9795781 139.911982,33.8782028 C139.232878,34.3850793 138.3161,34.9088439 137.161622,35.4495122 C136.007143,35.9901805 134.513135,36.2605106 132.679552,36.2605106 Z M170.828076,34.6892012 C170.692255,34.7567847 170.429105,34.8835019 170.03862,35.0693567 C169.648135,35.2552114 169.130325,35.4326155 168.485176,35.6015744 C167.840026,35.7705332 167.084533,35.9225939 166.218675,36.057761 C165.352816,36.192928 164.393595,36.2605106 163.340982,36.2605106 C161.032026,36.2605106 159.300334,35.6691635 158.145856,34.4864516 C156.991378,33.3037397 156.414147,31.6479678 156.414147,29.5190864 C156.414147,28.9446264 156.456591,28.3448315 156.541479,27.7196837 C156.626367,27.094536 156.753697,26.4440542 156.923474,25.7682189 L161.660206,6.000133 L155.038967,6.000133 L156.26135,0.8300183 L169.147299,0.8300183 L163.137252,26.173718 C163.069341,26.5116357 162.992943,26.8748918 162.908055,27.2634971 C162.823167,27.6521025 162.780723,27.9984629 162.780723,28.3025888 C162.780723,28.9784242 162.967475,29.5697713 163.340982,30.0766478 C163.71449,30.5835243 164.478471,30.8369588 165.63295,30.8369588 C166.108323,30.8369588 166.592178,30.7947197 167.084529,30.7102403 C167.57688,30.6257609 168.043757,30.5159393 168.485176,30.3807722 C168.926594,30.2456051 169.317073,30.1273357 169.656626,30.0259604 C169.996178,29.9245851 170.250838,29.840107 170.420615,29.7725234 L170.828076,34.6892012 Z" id="path-2"></path>
                                    </g>
                                </g>
                            </g>
                        </g>
                    </g>
                </svg>